<svg height="512pt" viewBox="0 0 512 512" width="512pt" xmlns="http://www.w3.org/2000/svg"><path d="m49.453125 10h296v444h-296zm0 0" fill="#ffcb7c"/><g fill="#fff"><path d="m98.546875 64h40v48h-40zm0 0"/><path d="m178.546875 64h40v48h-40zm0 0"/><path d="m258.546875 64h40v48h-40zm0 0"/><path d="m98.546875 152h40v48h-40zm0 0"/><path d="m178.546875 152h40v48h-40zm0 0"/><path d="m258.546875 152h40v48h-40zm0 0"/><path d="m98.546875 240h40v48h-40zm0 0"/><path d="m178.546875 240h40v48h-40zm0 0"/><path d="m258.546875 240h40v48h-40zm0 0"/></g><path d="m10 454h372v48h-372zm0 0" fill="#98a1b3"/><path d="m116 340h160v114h-160zm0 0" fill="#dff6fc"/><path d="m465.054688 273.363281c1.148437-5.566406 1.753906-11.332031 1.753906-17.238281 0-46.835938-37.96875-84.808594-84.808594-84.808594s-84.8125 37.972656-84.8125 84.808594c0 5.90625.609375 11.671875 1.757812 17.238281-21.835937 10.34375-36.945312 32.578125-36.945312 58.347657 0 35.640624 28.890625 64.535156 64.535156 64.535156 23.582032 0 44.207032-12.660156 55.464844-31.546875 11.257812 18.886719 31.878906 31.546875 55.464844 31.546875 35.640625 0 64.53125-28.894532 64.53125-64.535156.003906-25.769532-15.105469-48.003907-36.941406-58.347657zm0 0" fill="#91d9b9"/><path d="m488 502c0-22.09375-17.910156-40-40-40-6.957031 0-13.5 1.777344-19.199219 4.902344-10.671875-14.210938-27.660156-23.402344-46.800781-23.402344-32.308594 0-58.5 26.191406-58.5 58.5zm0 0" fill="#d8ec84"/><path d="m98.546875 122h40c5.519531 0 10-4.476562 10-10v-48c0-5.523438-4.480469-10-10-10h-40c-5.523437 0-10 4.476562-10 10v48c0 5.523438 4.476563 10 10 10zm10-48h20v28h-20zm0 0"/><path d="m178.546875 122h40c5.519531 0 10-4.476562 10-10v-48c0-5.523438-4.480469-10-10-10h-40c-5.523437 0-10 4.476562-10 10v48c0 5.523438 4.476563 10 10 10zm10-48h20v28h-20zm0 0"/><path d="m258.546875 122h40c5.519531 0 10-4.476562 10-10v-48c0-5.523438-4.480469-10-10-10h-40c-5.523437 0-10 4.476562-10 10v48c0 5.523438 4.476563 10 10 10zm10-48h20v28h-20zm0 0"/><path d="m88.546875 200c0 5.523438 4.476563 10 10 10h40c5.519531 0 10-4.476562 10-10v-48c0-5.523438-4.480469-10-10-10h-40c-5.523437 0-10 4.476562-10 10zm20-38h20v28h-20zm0 0"/><path d="m168.546875 200c0 5.523438 4.476563 10 10 10h40c5.519531 0 10-4.476562 10-10v-48c0-5.523438-4.480469-10-10-10h-40c-5.523437 0-10 4.476562-10 10zm20-38h20v28h-20zm0 0"/><path d="m88.546875 288c0 5.523438 4.476563 10 10 10h40c5.519531 0 10-4.476562 10-10v-48c0-5.523438-4.480469-10-10-10h-40c-5.523437 0-10 4.476562-10 10zm20-38h20v28h-20zm0 0"/><path d="m168.546875 288c0 5.523438 4.476563 10 10 10h40c5.519531 0 10-4.476562 10-10v-48c0-5.523438-4.480469-10-10-10h-40c-5.523437 0-10 4.476562-10 10zm20-38h20v28h-20zm0 0"/><path d="m448 452c-5.585938 0-11.136719.941406-16.386719 2.757812-10.59375-11.183593-24.4375-18.339843-39.613281-20.53125v-43.554687c12.878906 9.898437 28.84375 15.574219 45.464844 15.574219 41.097656 0 74.535156-33.4375 74.535156-74.535156 0-26.089844-13.882812-50.351563-35.925781-63.753907.488281-3.917969.734375-7.878906.734375-11.832031 0-52.277344-42.53125-94.808594-94.808594-94.808594-9.214844 0-18.121094 1.324219-26.550781 3.789063v-155.105469c0-5.523438-4.476563-10-10-10h-296c-5.519531 0-10 4.476562-10 10v182c0 5.523438 4.480469 10 10 10 5.523437 0 10-4.476562 10-10v-172h276v153.554688c-10.320313 5.84375-19.445313 13.5625-26.90625 22.699218v-44.253906c0-5.523438-4.476563-10-10-10h-40c-5.519531 0-10 4.476562-10 10v48c0 5.523438 4.480469 10 10 10h40c.226562 0 .449219-.019531.667969-.035156-3.511719 6.277344-6.335938 12.988281-8.359376 20.035156h-32.308593c-5.519531 0-10 4.476562-10 10v48c0 5.523438 4.480469 10 10 10h1.589843c-4.984374 9.792969-7.84375 20.703125-8.105468 32h-136.027344c-5.523438 0-10 4.476562-10 10v104h-46.546875v-172c0-5.523438-4.480469-10-10-10-5.523437 0-10 4.476562-10 10v172h-29.453125c-5.523438 0-10 4.476562-10 10v48c0 5.523438 4.476562 10 10 10h478c5.519531 0 10-4.476562 10-10 0-27.570312-22.429688-50-50-50zm-159.453125-262h-20v-28h20zm-22.546875 185.113281v68.886719h-60v-94h48.277344c2.320312 9.164062 6.355468 17.648438 11.722656 25.113281zm20 19.097657c11.675781 7.597656 25.59375 12.035156 40.535156 12.035156 3 0 5.972656-.203125 8.917969-.566406v38.320312h-49.453125zm69.453125 6.113281c5.898437-2.5 11.460937-5.742188 16.546875-9.652344v43.5625c-5.78125.851563-11.328125 2.417969-16.546875 4.621094zm26.546875-219.007813c41.25 0 74.808594 33.558594 74.808594 74.808594 0 5.117188-.519532 10.234375-1.546875 15.214844-.9375 4.519531 1.34375 9.085937 5.511719 11.0625 18.96875 8.984375 31.226562 28.339844 31.226562 49.308594 0 30.070312-24.464844 54.535156-54.535156 54.535156-18.230469 0-35.410156-9.304688-45.464844-24.441406v-26.71875l36.84375-36.84375c3.90625-3.90625 3.90625-10.238282 0-14.144532-3.90625-3.902344-10.234375-3.902344-14.140625 0l-22.703125 22.703125v-46c0-5.523437-4.476562-10-10-10-5.519531 0-10 4.476563-10 10v24.316407l-17.0625-17.0625c-3.90625-3.90625-10.234375-3.90625-14.140625 0s-3.90625 10.238281 0 14.144531l31.203125 31.203125v17.535156.011719 30.855469c-10.054688 15.136718-27.234375 24.441406-45.464844 24.441406-30.070312 0-54.535156-24.464844-54.535156-54.535156 0-20.96875 12.257812-40.324219 31.226562-49.308594 4.167969-1.976563 6.445313-6.542969 5.515626-11.0625-1.027344-4.976563-1.550782-10.097656-1.550782-15.214844 0-41.25 33.558594-74.808594 74.808594-74.808594zm-113.453125 68.683594h18.847656c-.128906 2.027344-.203125 4.066406-.203125 6.125 0 3.957031.246094 7.914062.734375 11.832031-4.730469 2.875-9.082031 6.253907-13.003906 10.042969h-6.375zm-142.546875 100h60v94h-60zm-106 114h305.039062c-5.523437 8.25-9.296874 17.757812-10.800781 28h-294.238281zm362 28h-47.464844c4.625-21.960938 24.148438-38.5 47.464844-38.5 15.398438 0 29.542969 7.074219 38.804688 19.40625 2.988281 3.976562 8.445312 5.15625 12.804687 2.765625 4.382813-2.402344 9.359375-3.671875 14.390625-3.671875 13.035156 0 24.160156 8.359375 28.285156 20zm0 0"/><path d="m49.449219 242c2.628906 0 5.210937-1.070312 7.070312-2.929688 1.859375-1.859374 2.929688-4.441406 2.929688-7.070312s-1.070313-5.210938-2.929688-7.070312c-1.859375-1.859376-4.441406-2.929688-7.070312-2.929688-2.628907 0-5.210938 1.070312-7.070313 2.929688-1.859375 1.859374-2.929687 4.441406-2.929687 7.070312s1.070312 5.210938 2.929687 7.070312c1.863282 1.859376 4.441406 2.929688 7.070313 2.929688zm0 0"/></svg>